<svg xmlns="http://www.w3.org/2000/svg" viewBox="0 0 320 320" role="img" aria-labelledby="title desc">
  <title id="title">Floating cat mascot</title>
  <desc id="desc">A stylised blue cat mascot with a floating pose.</desc>
  <defs>
    <linearGradient id="catBody" x1="0" y1="0" x2="1" y2="1">
      <stop offset="0%" stop-color="#4f46e5" />
      <stop offset="55%" stop-color="#3b82f6" />
      <stop offset="100%" stop-color="#22d3ee" />
    </linearGradient>
    <radialGradient id="catBelly" cx="50%" cy="50%" r="60%">
      <stop offset="0%" stop-color="#f8fafc" />
      <stop offset="100%" stop-color="#cbd5f5" />
    </radialGradient>
    <filter id="softShadow" x="-20%" y="-20%" width="140%" height="140%">
      <feDropShadow dx="0" dy="18" stdDeviation="16" flood-color="rgba(15, 23, 42, 0.25)" />
    </filter>
  </defs>
  <g filter="url(#softShadow)">
    <ellipse cx="160" cy="270" rx="90" ry="22" fill="rgba(15,23,42,0.2)" />
    <path d="M62 152c-4 52 28 100 98 110 68 8 106-30 102-90-2-28-16-52-36-72 10-22 16-45 8-62-16 10-32 22-46 36a118 118 0 0 0-54-14c-30 0-56 12-74 30-12 12-16 34-10 62l12 2z" fill="url(#catBody)" />
    <path d="M120 94c0-18 16-34 36-34s36 16 36 34c0 12-4 22-10 28-6 8-16 12-26 12-12 0-20-4-26-12-6-6-10-16-10-28z" fill="url(#catBelly)" />
    <path d="M168 128c0 8-6 14-12 14s-12-6-12-14" stroke="#1d4ed8" stroke-width="4" stroke-linecap="round" fill="none" />
    <g fill="#0f172a">
      <circle cx="142" cy="108" r="6" />
      <circle cx="180" cy="108" r="6" />
    </g>
    <path d="M130 82c-6-10-24-24-32-24-4 20 0 36 12 48" fill="#312e81" />
    <path d="M194 82c6-10 24-24 32-24 4 20 0 36-12 48" fill="#312e81" />
    <path d="M90 180c-16 8-24 30-14 42 12 14 36 16 54 4" fill="#1d4ed8" opacity="0.65" />
    <path d="M234 174c18 10 26 32 16 46-12 16-40 18-58 2" fill="#2563eb" opacity="0.6" />
    <path d="M104 212c6 20 32 32 56 32 24 0 50-12 58-32" fill="url(#catBelly)" opacity="0.65" />
    <path d="M124 242c8 10 20 16 34 16 14 0 26-6 34-16" stroke="#38bdf8" stroke-width="6" stroke-linecap="round" fill="none" opacity="0.75" />
  </g>
</svg>